<?xml version="1.0" encoding="utf-8"?>
<!-- Generator: Adobe Illustrator 16.0.0, SVG Export Plug-In . SVG Version: 6.00 Build 0)  -->
<!DOCTYPE svg PUBLIC "-//W3C//DTD SVG 1.0//EN" "http://www.w3.org/TR/2001/REC-SVG-20010904/DTD/svg10.dtd">
<svg version="1.0" id="Layer_1" xmlns="http://www.w3.org/2000/svg" xmlns:xlink="http://www.w3.org/1999/xlink" x="0px" y="0px"
	 width="100px" height="100px" viewBox="0 0 100 100" enable-background="new 0 0 100 100" xml:space="preserve">
<path fill="#263238" d="M53.333,30c0,1.833-1.5,3.333-3.333,3.333l0,0c-1.833,0-3.333-1.501-3.333-3.333V13.333
	C46.667,11.5,48.167,10,50,10l0,0c1.833,0,3.333,1.5,3.333,3.333V30z"/>
<path fill="#263238" d="M53.333,86.667c0,1.832-1.5,3.333-3.333,3.333l0,0c-1.833,0-3.333-1.501-3.333-3.333V70
	c0-1.833,1.5-3.333,3.333-3.333l0,0c1.833,0,3.333,1.5,3.333,3.333V86.667z"/>
<path fill="#263238" d="M30,46.667c1.833,0,3.333,1.5,3.333,3.333l0,0c0,1.833-1.5,3.333-3.333,3.333H13.333
	C11.501,53.333,10,51.833,10,50l0,0c0-1.833,1.501-3.333,3.333-3.333H30z"/>
<path fill="#263238" d="M86.667,46.667c1.832,0,3.333,1.5,3.333,3.333l0,0c0,1.833-1.501,3.333-3.333,3.333H70
	c-1.833,0-3.333-1.5-3.333-3.333l0,0c0-1.833,1.5-3.333,3.333-3.333H86.667z"/>
<path fill="#8BC34A" d="M33.503,61.784c1.295-1.296,3.418-1.296,4.713,0l0,0c1.296,1.295,1.296,3.418,0,4.713L26.434,78.284
	c-1.297,1.296-3.418,1.296-4.715,0l0,0c-1.296-1.295-1.296-3.418,0-4.714L33.503,61.784z"/>
<path fill="#8BC34A" d="M73.57,21.715c1.296-1.295,3.418-1.295,4.714,0l0,0c1.296,1.296,1.296,3.418,0,4.715L66.501,38.216
	c-1.296,1.295-3.418,1.295-4.714,0l0,0c-1.296-1.296-1.296-3.418,0-4.713L73.57,21.715z"/>
<path fill="#8BC34A" d="M61.784,66.497c-1.296-1.295-1.296-3.418,0-4.713l0,0c1.295-1.296,3.418-1.296,4.713,0L78.284,73.57
	c1.296,1.296,1.296,3.419,0,4.714l0,0c-1.296,1.296-3.418,1.296-4.714,0L61.784,66.497z"/>
<path fill="#8BC34A" d="M21.716,26.43c-1.296-1.297-1.296-3.419,0-4.715l0,0c1.296-1.295,3.418-1.295,4.714,0L38.216,33.5
	c1.296,1.294,1.296,3.418,0,4.713l0,0c-1.295,1.294-3.418,1.294-4.713,0L21.716,26.43z"/>
</svg>
