<?xml version="1.0" encoding="utf-8"?>
<!-- Generator: Adobe Illustrator 24.0.0, SVG Export Plug-In . SVG Version: 6.00 Build 0)  -->
<svg version="1.1" id="Layer_1" xmlns="http://www.w3.org/2000/svg" xmlns:xlink="http://www.w3.org/1999/xlink" x="0px" y="0px"
	 viewBox="0 0 256 256" style="enable-background:new 0 0 256 256;" xml:space="preserve">
<style type="text/css">
	.st0{fill:#FFB69F;}
	.st1{fill:#72C2E9;}
	.st2{fill:#C2E5FF;}
	.st3{fill:#FC5D3D;}
	.st4{fill:#AFAFAF;}
	.st5{fill:#FFCBC3;}
	.st6{fill:#F0C020;}
	.st7{fill:#F8E5B0;}
	.st8{fill:#EFEFEF;}
	.st9{fill:#EEC21E;}
	.st10{fill:#FFFFFF;}
	.st11{fill:#F1BF21;}
	.st12{fill:#E8A61E;}
	.st13{fill:#7D7B79;}
	.st14{fill:#B34F33;}
	.st15{fill:#F8E5B2;}
	.st16{fill:#C5E5FE;}
	.st17{fill:#4C4944;}
	.st18{fill:#4BA5C8;}
	.st19{fill:#AFAEAF;}
	.st20{fill:#CF941C;}
	.st21{fill:#7C7B7A;}
	.st22{fill:#FAE0E1;}
	.st23{fill:#13BF6D;}
	.st24{fill:#76FFBB;}
	.st25{fill:#F2E1D7;}
	.st26{fill:#878787;}
	.st27{fill:#F9E5AF;}
	.st28{fill:#E8A61F;}
	.st29{fill:none;stroke:#000000;stroke-width:5;stroke-linecap:round;stroke-linejoin:round;stroke-miterlimit:10;}
	.st30{fill:#EFEFF0;}
	.st31{fill:#E8A61B;}
	.st32{fill:#EFEFEE;}
	.st33{fill:#4C4945;}
	.st34{fill:#EA8F7D;}
	.st35{fill:#D6C0B3;}
	.st36{fill:#EEC120;}
</style>
<g>
	<path class="st6" d="M110.676,29.666L8.677,206.333c-7.698,13.333,1.925,30,17.321,30h203.997c15.396,0,25.019-16.667,17.321-30
		L145.317,29.666C137.619,16.333,118.374,16.333,110.676,29.666z"/>
	<path class="st7" d="M229.995,225.833H42.679c-3.303,0-3.308-5,0-5h187.315c3.449,0,5.653-3.708,3.897-6.75L131.893,37.416
		c-0.69-1.196-0.281-2.725,0.915-3.415c1.195-0.692,2.725-0.281,3.415,0.915l101.999,176.667
		C241.896,217.948,237.291,225.833,229.995,225.833z M32.679,225.833h-6.682c-3.303,0-3.308-5,0-5h6.682
		C35.982,220.833,35.987,225.833,32.679,225.833z"/>
	<polygon class="st8" points="34.658,211.333 127.996,49.666 221.334,211.333 	"/>
	<path class="st10" d="M200.549,201.833H74.179c-3.303,0-3.308-5,0-5h122.04l-50.149-86.862c-1.652-2.861,2.677-5.365,4.33-2.5
		l52.314,90.612C203.676,199.748,202.47,201.833,200.549,201.833z M64.179,201.833h-8.736c-3.303,0-3.308-5,0-5h8.736
		C67.482,196.833,67.487,201.833,64.179,201.833z"/>
	<path class="st10" d="M136.592,93.554l-10.761-18.638c-0.69-1.196-0.281-2.725,0.915-3.415c1.195-0.692,2.725-0.281,3.415,0.915
		l10.761,18.638c0.69,1.196,0.281,2.725-0.915,3.415C138.814,95.159,137.283,94.752,136.592,93.554z"/>
	<polygon class="st3" points="137.329,159.333 118.663,159.333 116.682,103.333 139.31,103.333 	"/>
	<rect x="118.663" y="174.999" class="st3" width="18.667" height="17"/>
	<path d="M25.996,238.829h204c17.304,0,28.154-18.788,19.48-33.75l-102-176.66c-8.56-14.938-30.298-15.058-38.97,0l-74.99,129.9
		c-0.704,1.201-0.273,2.727,0.91,3.42c1.16,0.66,2.75,0.23,3.42-0.92l74.99-129.9c6.73-11.649,23.561-11.683,30.31,0l102,176.66
		c6.822,11.787-1.866,26.236-15.15,26.25h-204c-13.27-0.014-21.985-14.438-15.15-26.25l16.99-29.44
		c0.702-1.198,0.277-2.723-0.91-3.42c-1.16-0.66-2.75-0.23-3.42,0.92l-16.99,29.44C-2.113,219.963,8.612,238.829,25.996,238.829z"/>
	<path d="M29.426,170.399c1.157,0.67,2.708,0.299,3.42-0.92c0.695-1.221,0.25-2.744-0.92-3.41c-1.16-0.67-2.75-0.24-3.42,0.91
		C27.825,168.169,28.236,169.709,29.426,170.399z"/>
	<path d="M139.306,100.829h-22.62c-1.459,0-2.561,1.239-2.5,2.59l0.52,14.7c0.05,1.38,1.18,2.48,2.58,2.4
		c1.38-0.04,2.46-1.2,2.42-2.58c0-0.01-0.01-0.01-0.01-0.02l-0.42-12.09h17.44l-1.8,51h-13.84l-0.67-18.91
		c-0.05-1.38-1.19-2.45-2.59-2.41c-1.38,0.06-2.46,1.22-2.41,2.59l0.76,21.32c0.05,1.35,1.14,2.41,2.5,2.41h18.66
		c1.36,0,2.45-1.06,2.5-2.41l1.98-56C141.848,101.979,140.691,100.829,139.306,100.829z"/>
	<path d="M120.056,127.929c-0.05-1.38-1.18-2.46-2.59-2.41c-1.37,0.061-2.451,1.191-2.41,2.59c0.05,1.35,1.14,2.41,2.49,2.41
		C118.946,130.519,120.098,129.368,120.056,127.929z"/>
	<path d="M137.329,172.499h-18.667c-1.381,0-2.5,1.119-2.5,2.5v17c0,1.381,1.119,2.5,2.5,2.5h18.667c1.381,0,2.5-1.119,2.5-2.5v-17
		C139.829,173.619,138.71,172.499,137.329,172.499z M134.829,189.499h-13.667v-12h13.667V189.499z"/>
	<path d="M185.906,149.969c1.163-0.662,1.626-2.17,0.92-3.41l-56.66-98.14c-0.973-1.663-3.368-1.663-4.34,0l-93.33,161.66
		c-0.966,1.652,0.238,3.75,2.16,3.75h186.68c1.923,0,3.125-2.098,2.16-3.75l-26.67-46.2c-0.67-1.15-2.26-1.58-3.42-0.92
		c-1.19,0.69-1.6,2.22-0.91,3.42l24.51,42.45H38.986l89.01-154.16l54.5,94.39C183.156,150.209,184.746,150.639,185.906,149.969z"/>
	<path d="M190.906,158.629c1.19-0.677,1.613-2.192,0.92-3.41c-0.67-1.15-2.26-1.58-3.42-0.92c-1.19,0.69-1.6,2.22-0.91,3.42
		C188.156,158.875,189.669,159.346,190.906,158.629z"/>
</g>
</svg>
